<svg width="18" height="18" viewBox="0 0 18 18" fill="none" xmlns="http://www.w3.org/2000/svg">
<path fill-rule="evenodd" clip-rule="evenodd" d="M-0.00012207 9C-0.00012207 5.40486 -0.00012207 3.60729 0.85657 2.31255C1.23912 1.73439 1.73427 1.23925 2.31243 0.856692C3.60717 0 5.40474 0 8.99988 0C12.595 0 14.3926 0 15.6873 0.856692C16.2655 1.23925 16.7606 1.73439 17.1432 2.31255C17.9999 3.60729 17.9999 5.40486 17.9999 9C17.9999 12.5951 17.9999 14.3927 17.1432 15.6874C16.7606 16.2656 16.2655 16.7608 15.6873 17.1433C14.3926 18 12.595 18 8.99988 18C5.40474 18 3.60717 18 2.31243 17.1433C1.73427 16.7608 1.23912 16.2656 0.85657 15.6874C-0.00012207 14.3927 -0.00012207 12.5951 -0.00012207 9ZM13.6591 9.00023C13.6591 11.5735 11.573 13.6596 8.99972 13.6596C6.4264 13.6596 4.34031 11.5735 4.34031 9.00023C4.34031 6.42691 6.4264 4.34082 8.99972 4.34082C11.573 4.34082 13.6591 6.42691 13.6591 9.00023ZM8.99972 12.0832C10.7024 12.0832 12.0827 10.7029 12.0827 9.00023C12.0827 7.29753 10.7024 5.91722 8.99972 5.91722C7.29702 5.91722 5.91671 7.29753 5.91671 9.00023C5.91671 10.7029 7.29702 12.0832 8.99972 12.0832ZM13.8432 5.20155C14.4478 5.20155 14.938 4.71138 14.938 4.10673C14.938 3.50207 14.4478 3.0119 13.8432 3.0119C13.2385 3.0119 12.7483 3.50207 12.7483 4.10673C12.7483 4.71138 13.2385 5.20155 13.8432 5.20155Z" fill="url(#paint0_linear_122_228)"/>
<defs>
<linearGradient id="paint0_linear_122_228" x1="8.99988" y1="0" x2="8.99988" y2="18" gradientUnits="userSpaceOnUse">
<stop stop-color="#B88400"/>
<stop offset="1" stop-color="#FFB800" stop-opacity="0.5"/>
</linearGradient>
</defs>
</svg>
