<svg width="18" height="18" viewBox="0 0 18 18" fill="none" xmlns="http://www.w3.org/2000/svg">
<path d="M-0.00012207 2.42005C-0.00012207 1.84284 0.202586 1.36665 0.607986 0.991481C1.01339 0.616295 1.54042 0.428711 2.18907 0.428711C2.82614 0.428711 3.34157 0.613403 3.7354 0.982823C4.1408 1.36378 4.34351 1.86016 4.34351 2.472C4.34351 3.02611 4.1466 3.48786 3.75277 3.85728C3.34737 4.23823 2.81455 4.42871 2.15432 4.42871H2.13694C1.49987 4.42871 0.98444 4.23823 0.590612 3.85728C0.196783 3.47633 -0.00012207 2.99725 -0.00012207 2.42005ZM0.225747 17.5716V6.00447H4.08289V17.5716H0.225747ZM6.21996 17.5716H10.0771V11.1127C10.0771 10.7086 10.1234 10.3969 10.2161 10.1776C10.3783 9.78512 10.6244 9.45323 10.9545 9.18195C11.2846 8.91066 11.6987 8.77503 12.1968 8.77503C13.4941 8.77503 14.1427 9.6466 14.1427 11.3897V17.5716H17.9999V10.9395C17.9999 9.23101 17.5945 7.9352 16.7837 7.05208C15.9728 6.16897 14.9014 5.72741 13.5694 5.72741C12.0752 5.72741 10.9111 6.3681 10.0771 7.64949V7.68412H10.0597L10.0771 7.64949V6.00447H6.21996C6.24312 6.37387 6.2547 7.52249 6.2547 9.45035C6.2547 11.3782 6.24312 14.0853 6.21996 17.5716Z" fill="#0085FF"/>
</svg>
